#!OML:ASF E:\inclinewalkrobotboard\Project 1\Capture day 1\Session 1\subject1.ASF
:FULLY-SPECIFIED
:DEGREES
316
root 9.95239 16.4091 -7.87489 11.0246 -2.78268 1.19996
lowerback -6.80791 0.800753 -7.16519
upperback 1.99633 1.66073 1.08554
thorax 5.69622 0.544549 5.3672
lowerneck -5.80664 -0.334927 -1.8011
upperneck 31.015 -1.114 3.24418
head 10.9532 -0.34027 1.37703
rclavicle -1.0461e-014 -5.76476e-015
rhumerus -80.0996 -31.682 9.89645
rradius 94.051
rwrist -21.0908
rhand -39.4044 -22.5301
rfingers 7.12502
rthumb -12.3935 -412.143
lclavicle -1.0461e-014 -5.76476e-015
lhumerus -55.7933 22.5438 -1.99436
lradius 67.5182
lwrist -7.4824
lhand -35.7508 336.342
lfingers 7.12502
lthumb -8.86938 6.13528
rfemur -6.74134 3.42376 13.2418
rtibia 6.10045
rfoot -11.3755 -5.21273
rtoes -34.7473
lfemur -7.34984 -5.96401 -18.2839
ltibia 5.34031
lfoot -11.1878 -0.895359
ltoes -53.1954
317
root 9.95438 16.4076 -7.8562 11.1919 -2.65979 1.04217
lowerback -6.87841 0.569167 -7.06387
upperback 2.04677 1.34451 1.17073
thorax 5.83591 0.383049 5.36877
lowerneck -5.42732 -0.832752 -1.95255
upperneck 29.7674 -1.65617 2.80393
head 10.4174 -0.663988 1.17237
rclavicle -5.26779e-015 1.42131e-014
rhumerus -81.6127 -32.3102 10.5802
rradius 88.3136
rwrist -22.9351
rhand -40.2876 -25.2126
rfingers 7.12502
rthumb -13.245 -414.772
lclavicle -5.26779e-015 1.42131e-014
lhumerus -57.7531 22.8751 -2.54177
lradius 61.9954
lwrist -7.19891
lhand -34.4788 336.993
lfingers 7.12502
lthumb -7.64174 6.83472
rfemur -6.80493 3.44302 13.4428
rtibia 6.11465
rfoot -11.4487 -5.33402
rtoes -34.6648
lfemur -7.34963 -6.04114 -18.1017
ltibia 5.13498
lfoot -11.2182 -0.819144
ltoes -53.5626
318
root 9.9515 16.407 -7.85676 11.2488 -2.58312 1.10476
lowerback -6.67331 0.299526 -7.30227
upperback 2.12441 0.990811 1.20446
thorax 5.85029 0.196087 5.49713
lowerneck -5.12066 -1.40312 -2.31354
upperneck 28.4989 -2.33275 2.58894
head 9.90923 -1.04678 1.08162
rclavicle -9.69075e-015 -3.77691e-015
rhumerus -82.2733 -33.0408 10.5495
rradius 82.2732
rwrist -23.7674
rhand -41.3255 -29.9168
rfingers 7.12502
rthumb -14.2453 -419.408
lclavicle -9.69075e-015 -3.77691e-015
lhumerus -59.366 23.0797 -2.62552
lradius 56.2264
lwrist -8.10357
lhand -33.7145 337.101
lfingers 7.12502
lthumb -6.90396 6.96858
rfemur -6.95435 3.84812 13.4003
rtibia 6.26767
rfoot -11.5472 -5.81988
rtoes -34.3859
lfemur -7.432 -6.07928 -18.1222
ltibia 5.10376
lfoot -11.2053 -0.777639
ltoes -53.9154
319
root 9.95152 16.4044 -7.85297 11.323 -2.48182 1.10626
lowerback -6.53609 0.174611 -7.33017
upperback 2.09045 0.813401 1.22365
thorax 5.76185 0.111792 5.51052
lowerneck -4.32701 -2.15761 -2.66248
upperneck 27.0186 -3.23298 2.21781
head 9.25201 -1.55019 0.928157
rclavicle 3.32964e-015 4.67144e-015
rhumerus -83.0234 -33.6579 10.6068
rradius 76.2634
rwrist -23.1286
rhand -39.9728 -33.6439
rfingers 7.12502
rthumb -12.9416 -423.223
lclavicle 3.32964e-015 4.67144e-015
lhumerus -60.1112 22.9382 -1.83576
lradius 50.4736
lwrist -8.27616
lhand -32.4597 339.067
lfingers 7.12502
lthumb -5.69259 8.97089
rfemur -7.03272 3.94306 13.4094
rtibia 6.35067
rfoot -11.6367 -6.02722
rtoes -34.4694
lfemur -7.53094 -6.07552 -18.1014
ltibia 5.12871
lfoot -11.186 -0.85729
ltoes -53.9687
320
root 9.95341 16.4016 -7.84719 11.4146 -2.44165 1.15206
lowerback -6.49384 0.0996326 -7.35705
upperback 2.08523 0.712887 1.20903
thorax 5.74733 0.0622149 5.49837
lowerneck -3.69371 -2.96332 -2.90434
upperneck 25.5165 -4.1872 1.70655
head 8.63117 -2.07919 0.720533
rclavicle -5.71506e-015 -1.00386e-014
rhumerus -83.6715 -34.273 10.5134
rradius 70.2995
rwrist -21.3652
rhand -37.3101 -35.8141
rfingers 7.12502
rthumb -10.3738 -425.538
lclavicle -5.71506e-015 -1.00386e-014
lhumerus -60.3519 22.6663 -0.298973
lradius 44.8503
lwrist -7.45192
lhand -31.0002 340.927
lfingers 7.12502
lthumb -4.28336 10.8634
rfemur -7.12828 3.78558 13.3373
rtibia 6.42948
rfoot -11.6898 -5.99823
rtoes -35.0955
lfemur -7.62143 -6.09331 -18.1536
ltibia 5.13618
lfoot -11.1915 -0.88511
ltoes -53.9544
321
root 9.95521 16.4001 -7.84428 11.4895 -2.45025 1.22377
lowerback -6.40434 -0.026688 -7.47699
upperback 2.07705 0.548119 1.19186
thorax 5.71239 -0.021493 5.52868
lowerneck -3.21684 -3.71697 -3.23081
upperneck 24.0757 -5.10978 1.38928
head 8.07869 -2.58033 0.608881
rclavicle -1.09829e-014 -8.94531e-016
rhumerus -83.4147 -34.6526 9.23479
rradius 64.9041
rwrist -20.8694
rhand -35.4219 -38.4559
rfingers 7.12502
rthumb -8.55195 -428.263
lclavicle -1.09829e-014 -8.94531e-016
lhumerus -60.5429 22.2515 1.65361
lradius 39.5338
lwrist -5.70329
lhand -29.6585 340.132
lfingers 7.12502
lthumb -2.98766 10.0906
rfemur -7.20606 3.80772 13.2368
rtibia 6.45017
rfoot -11.7346 -6.03453
rtoes -35.395
lfemur -7.69738 -6.03329 -18.2363
ltibia 5.12728
lfoot -11.1819 -0.904073
ltoes -54.1724
322
root 9.95912 16.3982 -7.83925 11.5156 -2.44441 1.20656
lowerback -6.29638 -0.247461 -7.52268
upperback 2.04225 0.249384 1.15134
thorax 5.65939 -0.166668 5.47709
lowerneck -2.33223 -4.38159 -3.49505
upperneck 22.3767 -5.97714 1.29263
head 7.38304 -3.03423 0.588964
rclavicle -4.88265e-015 1.0635e-014
rhumerus -82.5113 -34.9856 7.04167
rradius 59.6473
rwrist -20.9809
rhand -33.9903 -39.0443
rfingers 7.12502
rthumb -7.17018 -428.903
lclavicle -4.88265e-015 1.0635e-014
lhumerus -60.7843 21.36 4.26733
lradius 34.9653
lwrist -3.89881
lhand -28.4237 340.572
lfingers 7.12502
lthumb -1.79515 10.5442
rfemur -7.14372 3.96331 13.2446
rtibia 6.33351
rfoot -11.8037 -6.12079
rtoes -34.5375
lfemur -7.6759 -5.96858 -18.2325
ltibia 5.06246
lfoot -11.1446 -0.994106
ltoes -54.0069
323
root 9.96627 16.3945 -7.82971 11.5297 -2.42913 1.13355
lowerback -6.2981 -0.527145 -7.4772
upperback 1.99256 -0.128069 1.12221
thorax 5.66425 -0.349653 5.37822
lowerneck -1.18227 -4.91164 -3.72581
upperneck 20.5616 -6.69251 1.30227
head 6.61925 -3.40703 0.630991
rclavicle 8.10669e-016 -1.47846e-014
rhumerus -81.1324 -35.3474 4.31975
rradius 54.7726
rwrist -20.0176
rhand -31.8298 -40.6189
rfingers 7.12502
rthumb -5.08443 -430.538
lclavicle 8.10669e-016 -1.47846e-014
lhumerus -61.0424 20.6418 6.96333
lradius 30.994
lwrist -2.84532
lhand -25.6678 341.569
lfingers 7.12502
lthumb 0.866632 11.5472
rfemur -7.03287 3.97494 13.303
rtibia 6.16321
rfoot -11.7844 -6.09982
rtoes -33.5978
lfemur -7.59322 -5.97484 -18.1924
ltibia 4.97529
lfoot -11.1243 -1.08552
ltoes -53.5038
324
root 9.97411 16.3894 -7.82035 11.5684 -2.41934 1.10715
lowerback -6.42711 -0.596313 -7.35653
upperback 1.91449 -0.223998 1.14015
thorax 5.66802 -0.390908 5.31817
lowerneck -1.00509 -5.7747 -4.37272
upperneck 19.5469 -7.81605 1.32234
head 6.32565 -3.9948 0.687727
rclavicle -1.02405e-014 -2.11209e-015
rhumerus -80.0192 -35.6966 2.06471
rradius 50.0833
rwrist -17.9212
rhand -29.8295 -42.5917
rfingers 7.12502
rthumb -3.15275 -432.548
lclavicle -1.02405e-014 -2.11209e-015
lhumerus -60.7451 20.8242 9.61694
lradius 27.1015
lwrist -3.9844
lhand -22.0211 341.341
lfingers 7.12502
lthumb 4.38835 11.2751
rfemur -6.97216 3.81749 13.2968
rtibia 6.03804
rfoot -11.6186 -5.95603
rtoes -33.8853
lfemur -7.57052 -5.99735 -18.2215
ltibia 4.9688
lfoot -11.1399 -1.15696
ltoes -53.1422
325
root 9.97737 16.3851 -7.82029 11.6102 -2.48929 1.09711
lowerback -6.50818 -0.487431 -7.24895
upperback 1.79738 -0.0866885 1.16717
thorax 5.56853 -0.312403 5.30119
lowerneck 0.107047 -6.67786 -5.71283
upperneck 17.7571 -9.1151 2.16802
head 5.7174 -4.66402 1.15015
rclavicle 1.80149e-015 -6.4605e-015
rhumerus -78.7838 -36.0137 -0.823818
rradius 45.9669
rwrist -14.8485
rhand -28.4033 -45.234
rfingers 7.12502
rthumb -1.77539 -435.206
lclavicle 1.80149e-015 -6.4605e-015
lhumerus -60.1112 21.507 12.423
lradius 23.6049
lwrist -7.05804
lhand -19.4128 341.645
lfingers 7.12502
lthumb 6.90672 11.5119
rfemur -7.04851 3.83711 13.2843
rtibia 6.04819
rfoot -11.4845 -5.94646
rtoes -34.5738
lfemur -7.65381 -5.95048 -18.2172
ltibia 5.05776
lfoot -11.1517 -1.14255
ltoes -53.1521
326
root 9.98166 16.3791 -7.81744 11.5681 -2.63303 1.08917
lowerback -6.57189 -0.5684 -7.23442
upperback 1.76673 -0.190815 1.1434
thorax 5.58738 -0.362724 5.25605
lowerneck 0.602128 -7.27367 -6.12378
upperneck 16.5891 -9.92809 2.3229
head 5.33405 -5.07868 1.2528
rclavicle 1.35733e-014 5.889e-015
rhumerus -76.6825 -36.4761 -4.94776
rradius 42.3552
rwrist -11.6115
rhand -26.3903 -46.9834
rfingers 7.12502
rthumb 0.168796 -436.963
lclavicle 1.35733e-014 5.889e-015
lhumerus -60.0287 22.5962 14.7617
lradius 20.6631
lwrist -11.4105
lhand -19.7274 339.846
lfingers 7.12502
lthumb 6.60299 9.72347
rfemur -7.03056 3.8186 13.266
rtibia 6.03237
rfoot -11.5167 -5.82873
rtoes -34.4828
lfemur -7.55203 -5.8263 -18.2454
ltibia 5.01284
lfoot -11.1546 -1.0739
ltoes -53.6271
327
root 9.98524 16.3747 -7.82113 11.5105 -2.73766 0.969951
lowerback -6.52661 -0.881239 -7.24632
upperback 1.82816 -0.607788 1.11697
thorax 5.6877 -0.574316 5.18668
lowerneck -0.000738855 -7.66666 -5.75742
upperneck 16.2374 -10.3771 1.88378
head 5.30332 -5.29606 1.0164
rclavicle -3.6713e-015 1.31695e-015
rhumerus -73.4226 -37.0356 -10.506
rradius 39.0566
rwrist -7.9407
rhand -23.3211 -47.2107
rfingers 7.12502
rthumb 3.13301 -437.167
lclavicle -3.6713e-015 1.31695e-015
lhumerus -60.3153 24.5012 16.3242
lradius 18.2256
lwrist -16.1178
lhand -19.9353 340.333
lfingers 7.12502
lthumb 6.40232 10.2158
rfemur -7.02537 3.89343 13.3905
rtibia 6.04309
rfoot -11.5398 -5.79391
rtoes -34.2741
lfemur -7.48666 -5.74053 -18.1227
ltibia 5.00828
lfoot -11.1631 -1.00082
ltoes -54.0493
